<svg xmlns="http://www.w3.org/2000/svg" viewBox="0 0 128 128">
  <path fill="#A41E11" d="M121.8 93.1c-6.7 3.5-41.4 17.7-48.8 21.6-7.4 3.9-11.5 3.8-17.3 1S13 98.1 6.3 94.9c-3.3-1.6-5.1-2.9-5.1-4.2V78.1s48-10.5 55.8-13.2c7.8-2.8 10.4-2.9 17-.5s46.1 9.5 52.6 11.9v12.5c0 1.3-1.5 2.7-4.8 4.3z"/>
  <path fill="#D82C20" d="M121.8 80.5C115.1 84 80.4 98.3 73 102.1c-7.4 3.9-11.5 3.8-17.3 1-5.8-2.8-42.7-17.7-49.4-20.9C-.3 79-.5 76.8 6 74.3c6.5-2.6 43.2-17 51-19.7 7.8-2.8 10.4-2.9 17-.5s41.1 16.1 47.6 18.5c6.6 2.4 6.9 4.4.2 7.9z"/>
  <path fill="#A41E11" d="M121.8 72.5c-6.7 3.5-41.4 17.7-48.8 21.6-7.4 3.9-11.5 3.8-17.3 1S13 77.5 6.3 74.3c-3.3-1.6-5.1-2.9-5.1-4.2V57.5s48-10.5 55.8-13.2c7.8-2.8 10.4-2.9 17-.5s46.1 9.5 52.6 11.9v12.5c0 1.3-1.5 2.7-4.8 4.3z"/>
  <path fill="#D82C20" d="M121.8 59.9c-6.7 3.5-41.4 17.7-48.8 21.6-7.4 3.9-11.5 3.8-17.3 1S13 64.9 6.3 61.7C-.3 58.5-.5 56.2 6 53.8c6.5-2.6 43.2-17 51-19.7 7.8-2.8 10.4-2.9 17-.5s41.1 16.1 47.6 18.5c6.6 2.4 6.9 4.3.2 7.8z"/>
  <path fill="#A41E11" d="M121.8 51c-6.7 3.5-41.4 17.7-48.8 21.6-7.4 3.9-11.5 3.8-17.3 1S13 56 6.3 52.8c-3.3-1.6-5.1-2.9-5.1-4.2V36s48-10.5 55.8-13.2c7.8-2.8 10.4-2.9 17-.5s46.1 9.5 52.6 11.9v12.5c0 1.3-1.5 2.7-4.8 4.3z"/>
  <path fill="#D82C20" d="M121.8 38.4c-6.7 3.5-41.4 17.7-48.8 21.6-7.4 3.9-11.5 3.8-17.3 1S13 43.4 6.3 40.2C-.3 37-.5 34.7 6 32.3c6.5-2.6 43.2-17 51-19.7 7.8-2.8 10.4-2.9 17-.5s41.1 16.1 47.6 18.5c6.6 2.4 6.9 4.3.2 7.8z"/>
  <path fill="#fff" d="M80.4 26.1l-10.8 1.2-2.5 5.8-4.6-6.5-12.2-.3 9.2-3.5-3.4-5.6 10.2 3.2 8.5-3.4-2.5 6.1zm-30.7 9.4c11.1 0 20.2 3.1 20.2 7s-9 7-20.2 7-20.2-3.1-20.2-7 9.1-7 20.2-7z"/>
  <ellipse fill="#fff" cx="49.7" cy="42.5" rx="20.2" ry="7"/>
  <path fill="#7A0C00" d="M88.7 56.5L64 66.9l-24.7-10.4L64 46z"/>
  <path fill="#AD2115" d="M64 66.9V46l24.7 10.5z"/>
</svg>