<svg width="400" height="300" viewBox="0 0 400 300" fill="none" xmlns="http://www.w3.org/2000/svg">
  <rect width="400" height="300" fill="#2c3e50"/>
  <rect x="50" y="50" width="300" height="200" rx="10" fill="#34495e"/>
  <path d="M100 100 L120 120 L140 100 L160 130 L180 110 L200 140 L220 120 L240 150 L260 130 L280 160 L300 140" stroke="#3498db" stroke-width="3" fill="none"/>
  <circle cx="100" cy="100" r="3" fill="#3498db"/>
  <circle cx="140" cy="100" r="3" fill="#3498db"/>
  <circle cx="180" cy="110" r="3" fill="#3498db"/>
  <circle cx="220" cy="120" r="3" fill="#3498db"/>
  <circle cx="260" cy="130" r="3" fill="#3498db"/>
  <circle cx="300" cy="140" r="3" fill="#3498db"/>
  <rect x="80" y="180" width="20" height="40" fill="#e74c3c"/>
  <rect x="110" y="160" width="20" height="60" fill="#f39c12"/>
  <rect x="140" y="140" width="20" height="80" fill="#2ecc71"/>
  <rect x="170" y="170" width="20" height="50" fill="#9b59b6"/>
  <rect x="200" y="150" width="20" height="70" fill="#1abc9c"/>
  <text x="200" y="270" text-anchor="middle" fill="#3498db" font-family="Arial" font-size="16" font-weight="bold">CodeTrail</text>
</svg>
