<svg xmlns="http://www.w3.org/2000/svg" viewBox="0 0 800 600" fill="none">
  <rect width="800" height="600" fill="#0c1729"/>
  <rect x="200" y="150" width="400" height="250" rx="10" fill="#1e293b"/>
  <rect x="220" y="170" width="360" height="20" rx="5" fill="#334155"/>
  <rect x="220" y="200" width="360" height="20" rx="5" fill="#334155"/>
  <rect x="220" y="230" width="180" height="20" rx="5" fill="#334155"/>
  <rect x="220" y="260" width="280" height="20" rx="5" fill="#334155"/>
  <rect x="220" y="290" width="360" height="20" rx="5" fill="#334155"/>
  <rect x="220" y="320" width="200" height="20" rx="5" fill="#334155"/>
  <rect x="220" y="350" width="300" height="20" rx="5" fill="#334155"/>
  <path d="M650 200 L680 250 L650 300 L620 250 Z" fill="#a855f7" opacity="0.9"/>
  <path d="M650 200 L680 250 L650 300 L620 250 Z" fill="#a855f7" opacity="0.9" transform="translate(-500, 0)"/>
  <text x="400" y="520" font-family="Arial" font-size="40" fill="white" text-anchor="middle">CodeExplainer</text>
  <text x="400" y="560" font-family="Arial" font-size="20" fill="#94a3b8" text-anchor="middle">NLP-Powered Code Analysis</text>
</svg> 